<svg width="538" height="158" viewBox="0 0 538 158" fill="none" xmlns="http://www.w3.org/2000/svg">
<path d="M67.7199 14.7664C75.517 5.40986 87.0673 0 99.2469 0H153.895L104.642 59.1037C96.8451 68.4603 85.2948 73.8701 73.1153 73.8701H18.4668L67.7199 14.7664Z" fill="white"/>
<path d="M49.2531 88.6375C57.0502 79.281 68.6005 73.8711 80.7801 73.8711H135.429L86.1755 132.975C78.3783 142.331 66.828 147.741 54.6485 147.741H0L49.2531 88.6375Z" fill="white"/>
<path d="M181.72 129V37.0727H250.665V62.2871H216.39V75.5509H246.726V99.4519H216.39V129H181.72ZM284.82 130.051C278.341 130.051 273.088 129.263 269.061 127.687C265.121 126.023 262.276 123.134 260.525 119.019C258.774 114.817 257.898 108.864 257.898 101.159V37.0727H286.79V95.1182C286.79 99.4082 287.228 102.429 288.103 104.18C289.066 105.843 291.386 106.675 295.063 106.675C295.501 106.675 295.851 106.675 296.114 106.675C296.464 106.675 296.858 106.631 297.296 106.543V129.525C296.07 129.613 294.538 129.7 292.699 129.788C290.948 129.875 289.285 129.919 287.709 129.919C286.221 130.007 285.258 130.051 284.82 130.051ZM337.971 130.97C330.879 130.97 324.444 129.7 318.666 127.161C312.887 124.535 308.291 120.551 304.877 115.211C301.55 109.87 299.886 103.085 299.886 94.8556V92.2291C299.886 84.6123 301.55 78.2211 304.877 73.0557C308.291 67.8902 312.887 63.9943 318.666 61.3678C324.444 58.7413 330.879 57.428 337.971 57.428C345.15 57.428 351.584 58.7413 357.275 61.3678C363.054 63.9943 367.606 67.8902 370.933 73.0557C374.347 78.2211 376.055 84.6123 376.055 92.2291V94.8556C376.055 102.735 374.347 109.389 370.933 114.817C367.606 120.157 363.054 124.185 357.275 126.899C351.584 129.613 345.15 130.97 337.971 130.97ZM337.971 107.594C339.721 107.594 341.21 107.2 342.436 106.412C343.749 105.537 344.712 104.18 345.325 102.341C346.025 100.415 346.375 97.9198 346.375 94.8556V92.2291C346.375 89.515 346.025 87.3263 345.325 85.6629C344.712 83.9994 343.749 82.7737 342.436 81.9858C341.21 81.1978 339.721 80.8038 337.971 80.8038C336.22 80.8038 334.687 81.1978 333.374 81.9858C332.148 82.7737 331.185 83.9994 330.485 85.6629C329.872 87.3263 329.566 89.515 329.566 92.2291V94.8556C329.566 97.9198 329.872 100.415 330.485 102.341C331.185 104.18 332.148 105.537 333.374 106.412C334.687 107.2 336.22 107.594 337.971 107.594ZM404.992 130.97C397.551 130.97 391.86 128.869 387.92 124.666C383.98 120.464 382.01 114.248 382.01 106.018V59.3979H410.902V100.109C410.902 102.385 411.383 104.223 412.346 105.624C413.309 106.937 414.929 107.594 417.205 107.594C418.781 107.594 420.051 107.288 421.014 106.675C422.064 106.062 422.809 105.186 423.246 104.048C423.772 102.91 424.034 101.597 424.034 100.109V59.3979H452.926V129H426.136V121.121C424.56 123.835 422.064 126.155 418.65 128.081C415.323 130.007 410.771 130.97 404.992 130.97ZM457.846 129L476.232 92.8857L459.16 59.3979H490.415L497.769 76.3388L504.729 59.3979H535.328L518.256 92.2291L536.641 129H505.386L496.718 108.907L488.576 129H457.846Z" fill="white"/>
</svg>
